<?xml version="1.0" encoding="utf-8"?>
<!-- Generator: Adobe Illustrator 24.3.0, SVG Export Plug-In . SVG Version: 6.00 Build 0)  -->
<svg version="1.1" id="Layer_1" xmlns:svgjs="http://svgjs.com/svgjs"
	 xmlns="http://www.w3.org/2000/svg" xmlns:xlink="http://www.w3.org/1999/xlink" x="0px" y="0px" viewBox="0 0 512 512"
	 style="enable-background:new 0 0 512 512;" xml:space="preserve">
<style type="text/css">
	.st0{fill:#FFFFFF;}
</style>
<g>
	<path class="st0" d="M293.6,256.4L453.2,96.8c10.4-10.4,10.4-27.2,0-37.6c-10.4-10.4-27.2-10.4-37.6,0L256,218.9L96.4,59.2
		c-10.4-10.4-27.2-10.4-37.6,0c-10.4,10.4-10.4,27.2,0,37.6l159.6,159.7L58.8,416.1c-10.4,10.4-10.4,27.2,0,37.6
		c5.2,5.2,12,7.8,18.8,7.8c6.8,0,13.6-2.6,18.8-7.8L256,294l159.7,159.7c5.2,5.2,12,7.8,18.8,7.8c6.8,0,13.6-2.6,18.8-7.8
		c10.4-10.4,10.4-27.2,0-37.6L293.6,256.4z"/>
</g>
</svg>
